<?xml version="1.0" encoding="UTF-8" standalone="no"?>
<svg
   width="104"
   height="102"
   version="1.1"
   id="svg1"
   sodipodi:docname="bg-pattern-quotation2.svg"
   inkscape:version="1.3.1 (9b9bdc1480, 2023-11-25, custom)"
   xmlns:inkscape="http://www.inkscape.org/namespaces/inkscape"
   xmlns:sodipodi="http://sodipodi.sourceforge.net/DTD/sodipodi-0.dtd"
   xmlns="http://www.w3.org/2000/svg"
   xmlns:svg="http://www.w3.org/2000/svg">
  <defs
     id="defs1" />
  <sodipodi:namedview
     id="namedview1"
     pagecolor="#ffffff"
     bordercolor="#000000"
     borderopacity="0.25"
     inkscape:showpageshadow="2"
     inkscape:pageopacity="0.0"
     inkscape:pagecheckerboard="0"
     inkscape:deskcolor="#d1d1d1"
     inkscape:zoom="2.9117647"
     inkscape:cx="33.313131"
     inkscape:cy="32.969697"
     inkscape:window-width="1440"
     inkscape:window-height="836"
     inkscape:window-x="0"
     inkscape:window-y="27"
     inkscape:window-maximized="1"
     inkscape:current-layer="svg1" />
  <path
     d="m 0,0 v 42.273 h 19.886 c 0,5.871 -0.689,11.182 -2.068,15.933 -1.379,4.75 -3.42,9.287 -6.125,13.61 C 8.99,76.14 5.091,79.743 0,82.625 V 102 C 9.758,97.73 17.712,92.126 23.864,85.187 30.015,78.248 34.576,70.642 37.545,62.369 40.515,54.096 42,42.059 42,26.26 V 0 Z m 62,0 v 42.273 h 19.886 c 0,5.871 -0.689,11.182 -2.068,15.933 -1.379,4.75 -3.42,9.287 -6.125,13.61 C 70.99,76.14 67.091,79.743 62,82.625 V 102 C 71.652,97.73 79.58,92.126 85.784,85.187 91.99,78.248 96.576,70.642 99.545,62.369 102.515,54.096 104,42.059 104,26.26 V 0 Z"
     fill="#A775F1"
     fill-rule="nonzero"
     id="path1"
     style="fill:#009ba9;fill-opacity:0.535658" />
</svg>
