<?xml version="1.0" encoding="UTF-8" standalone="no"?>
<svg
   width="104"
   height="102"
   version="1.1"
   id="svg1"
   sodipodi:docname="bg-pattern-quotation.svg"
   inkscape:version="1.3.1 (9b9bdc1480, 2023-11-25, custom)"
   xmlns:inkscape="http://www.inkscape.org/namespaces/inkscape"
   xmlns:sodipodi="http://sodipodi.sourceforge.net/DTD/sodipodi-0.dtd"
   xmlns="http://www.w3.org/2000/svg"
   xmlns:svg="http://www.w3.org/2000/svg">
  <defs
     id="defs1" />
  <sodipodi:namedview
     id="namedview1"
     pagecolor="#ffffff"
     bordercolor="#000000"
     borderopacity="0.25"
     inkscape:showpageshadow="2"
     inkscape:pageopacity="0.0"
     inkscape:pagecheckerboard="0"
     inkscape:deskcolor="#d1d1d1"
     inkscape:zoom="5.8235294"
     inkscape:cx="52.030303"
     inkscape:cy="51"
     inkscape:window-width="1440"
     inkscape:window-height="836"
     inkscape:window-x="0"
     inkscape:window-y="27"
     inkscape:window-maximized="1"
     inkscape:current-layer="svg1" />
  <path
     d="M104 102V59.727H84.114c0-5.871.689-11.182 2.068-15.933 1.379-4.75 3.42-9.287 6.125-13.61C95.01 25.86 98.909 22.257 104 19.375V0c-9.758 4.27-17.712 9.874-23.864 16.813-6.151 6.939-10.712 14.545-13.681 22.818C63.485 47.904 62 59.941 62 75.74V102h42zm-62 0V59.727H22.114c0-5.871.689-11.182 2.068-15.933 1.379-4.75 3.42-9.287 6.125-13.61C33.01 25.86 36.909 22.257 42 19.375V0c-9.652 4.27-17.58 9.874-23.784 16.813C12.01 23.752 7.424 31.358 4.455 39.631 1.485 47.904 0 59.941 0 75.74V102h42z"
     fill="#A775F1"
     fill-rule="nonzero"
     id="path1"
     style="fill:#009ba9;fill-opacity:0.53565782" />
</svg>
