<svg width="3619" height="2054" viewBox="0 0 3619 2054" fill="none" xmlns="http://www.w3.org/2000/svg">
<g clip-path="url(#clip0_603_158955)">
<path d="M0 0H3619V2054H0V0Z" fill="#CF142B"/>
<path d="M0 0H3619V1369H0V0Z" fill="#00247D"/>
<path d="M0 3.99999C0 1.79086 1.79086 0 4 0H3615C3617.21 0 3619 1.79086 3619 4V685H0V3.99999Z" fill="#FFCC00"/>
<path d="M1984.37 746.68L1942.03 822.767L1988.38 846.353L1984.37 746.68Z" fill="white"/>
<path d="M1984.63 746.68L1996.05 830.868L1942.39 838.577L1984.63 746.68Z" fill="white"/>
<path d="M2056.18 818.826L1968.99 804.191L1959.53 854.987L2056.18 818.826Z" fill="white"/>
<path d="M2056.18 818.877L1976.21 856.57L1953.06 810.593L2056.18 818.877Z" fill="white"/>
<path d="M1889.92 791.34L1950.98 852.347L1989.88 816.119L1889.92 791.34Z" fill="white"/>
<path d="M1890.54 790.783L1977.33 804.808L1967.47 856.214L1890.54 790.783Z" fill="white"/>
<path d="M2007.2 908.117L1994.51 823.133L1942.11 830.045L2007.2 908.117Z" fill="white"/>
<path d="M2007.41 907.885L1945.54 846.101L1983.63 810.651L2007.41 907.885Z" fill="white"/>
<path d="M1904.58 890.414L1984.21 853.065L1960.73 806.744L1904.58 890.414Z" fill="white"/>
<path d="M1904.44 890.271L1945.95 814.847L1993.12 839.096L1904.44 890.271Z" fill="white"/>
<path d="M2221.62 830.037L2155.24 887.718L2190.45 925.464L2221.62 830.037Z" fill="white"/>
<path d="M2221.2 829.615L2202.14 913.75L2150.65 903.495L2221.2 829.615Z" fill="white"/>
<path d="M2263.65 921.557L2187.14 879.158L2160.16 924.022L2263.65 921.557Z" fill="white"/>
<path d="M2263.65 921.387L2174.99 930.896L2169.82 880.391L2263.65 921.387Z" fill="white"/>
<path d="M2117.44 840.881L2153.12 918.741L2202.18 897.53L2117.44 840.881Z" fill="white"/>
<path d="M2117.77 840.557L2194.3 882.978L2167.33 927.819L2117.77 840.557Z" fill="white"/>
<path d="M2185.84 989.27L2204.57 905.387L2152.75 894.88L2185.84 989.27Z" fill="white"/>
<path d="M2185.88 989.27L2150.01 911.247L2198.89 890.199L2185.88 989.27Z" fill="white"/>
<path d="M2095.61 938.961L2184.01 929.844L2178.59 878.946L2095.61 938.961Z" fill="white"/>
<path d="M2095.75 939.07L2161.83 881.696L2197.34 919.748L2095.75 939.07Z" fill="white"/>
<path d="M2414.97 986.705L2332.54 1018.93L2352.35 1066.38L2414.97 986.705Z" fill="white"/>
<path d="M2414.84 986.574L2367.65 1059.28L2322.64 1032.2L2414.84 986.574Z" fill="white"/>
<path d="M2422.11 1086.95L2365.19 1021.51L2324.27 1054.63L2422.11 1086.95Z" fill="white"/>
<path d="M2421.99 1087.07L2336 1066.52L2349.01 1016.54L2421.99 1087.07Z" fill="white"/>
<path d="M2313.59 962.486L2319.59 1047.74L2372.91 1044.04L2313.59 962.486Z" fill="white"/>
<path d="M2313.71 962.365L2370.64 1027.82L2329.73 1060.93L2313.71 962.365Z" fill="white"/>
<path d="M2325.28 1124.76L2372.4 1052.1L2327.32 1024.97L2325.28 1124.76Z" fill="white"/>
<path d="M2325.23 1124.76L2319.18 1039.47L2372.43 1035.8L2325.23 1124.76Z" fill="white"/>
<path d="M2258.3 1047.8L2344.33 1068.39L2357.3 1018.45L2258.3 1047.8Z" fill="white"/>
<path d="M2258.3 1047.79L2340.68 1015.63L2360.54 1063.14L2258.3 1047.79Z" fill="white"/>
<path d="M2541.3 1197.78L2452.51 1200.9L2454.28 1252.08L2541.3 1197.78Z" fill="white"/>
<path d="M2541.21 1197.7L2471.2 1250.47L2438.49 1210.08L2541.21 1197.7Z" fill="white"/>
<path d="M2512.44 1294.41L2482.19 1214.07L2432.04 1231.71L2512.44 1294.41Z" fill="white"/>
<path d="M2512.35 1294.49L2438.86 1246.72L2468.72 1204.06L2512.35 1294.49Z" fill="white"/>
<path d="M2454.84 1141.52L2430.25 1223.88L2481.31 1237.94L2454.84 1141.52Z" fill="white"/>
<path d="M2454.83 1141.52L2485.06 1221.85L2434.91 1239.5L2454.83 1141.52Z" fill="white"/>
<path d="M2408.09 1298L2478.11 1245.22L2445.41 1204.85L2408.09 1298Z" fill="white"/>
<path d="M2408.18 1298.08L2432.76 1215.73L2483.83 1229.8L2408.18 1298.08Z" fill="white"/>
<path d="M2372.48 1203.53L2445.99 1251.32L2475.84 1208.67L2372.48 1203.53Z" fill="white"/>
<path d="M2372.48 1203.58L2461.27 1200.47L2463.04 1251.67L2372.48 1203.58Z" fill="white"/>
<path d="M1173.45 1198.57L1242.58 1250.47L1276.18 1209.22L1173.45 1198.57Z" fill="white"/>
<path d="M1174.36 1197.78L1262.15 1199.39L1259.38 1252.08L1174.36 1197.78Z" fill="white"/>
<path d="M1260.89 1141.52L1229.59 1222.65L1278.69 1239.5L1260.89 1141.52Z" fill="white"/>
<path d="M1260.98 1141.52L1284.42 1223.07L1232.2 1237.94L1260.98 1141.52Z" fill="white"/>
<path d="M1201.41 1294.49L1275.77 1245.85L1246.78 1204.06L1201.41 1294.49Z" fill="white"/>
<path d="M1202.2 1295.22L1233.54 1214.07L1282.59 1230.9L1202.2 1295.22Z" fill="white"/>
<path d="M1342.16 1203.33L1253.62 1200.47L1251.6 1251.92L1342.16 1203.33Z" fill="white"/>
<path d="M1342.16 1203.38L1268.43 1251.32L1238.8 1208.83L1342.16 1203.38Z" fill="white"/>
<path d="M1306.48 1297.85L1282.31 1215.73L1230.82 1230.04L1306.48 1297.85Z" fill="white"/>
<path d="M1306.26 1298L1236.54 1245.47L1269.54 1204.85L1306.26 1298Z" fill="white"/>
<path d="M1299.81 987.223L1346.21 1059.28L1392 1031.55L1299.81 987.223Z" fill="white"/>
<path d="M1300.38 986.705L1382.11 1018.11L1361.59 1066.38L1300.38 986.705Z" fill="white"/>
<path d="M1401.54 962.363L1344 1028.36L1384.3 1060.93L1401.54 962.363Z" fill="white"/>
<path d="M1401.05 961.879L1394.05 1047.74L1341.73 1044.64L1401.05 961.879Z" fill="white"/>
<path d="M1292.03 1087.07L1378.66 1065.74L1366.29 1016.54L1292.03 1087.07Z" fill="white"/>
<path d="M1292.55 1087.52L1350.11 1021.51L1390.39 1054.06L1292.55 1087.52Z" fill="white"/>
<path d="M1456.34 1047.14L1374.49 1015.63L1354.1 1063.78L1456.34 1047.14Z" fill="white"/>
<path d="M1456.34 1047.09L1369.77 1068.39L1357.34 1019.17L1456.34 1047.09Z" fill="white"/>
<path d="M1388.67 1124.76L1395.46 1039.02L1342.94 1035.8L1388.67 1124.76Z" fill="white"/>
<path d="M1388.88 1124.76L1342.24 1052.5L1387.8 1024.97L1388.88 1124.76Z" fill="white"/>
<path d="M1493.44 830.154L1511.71 913.751L1563.98 902.958L1493.44 830.154Z" fill="white"/>
<path d="M1493.56 830.037L1559.39 887.188L1523.63 925.464L1493.56 830.037Z" fill="white"/>
<path d="M1597.33 840.557L1520.35 883.471L1546.85 927.819L1597.33 840.557Z" fill="white"/>
<path d="M1597.21 840.449L1560.97 918.741L1512.46 897.963L1597.21 840.449Z" fill="white"/>
<path d="M1451.01 922.105L1539.16 930.894L1544.84 879.668L1451.01 922.105Z" fill="white"/>
<path d="M1451.01 922.057L1527.98 879.157L1554.5 923.52L1451.01 922.057Z" fill="white"/>
<path d="M1618.91 938.893L1553.03 881.697L1517.32 919.929L1618.91 938.893Z" fill="white"/>
<path d="M1618.82 938.965L1530.64 930.132L1536.29 878.95L1618.82 938.965Z" fill="white"/>
<path d="M1528.45 989.266L1564.65 911.014L1516.09 890.195L1528.45 989.266Z" fill="white"/>
<path d="M1528.44 989.266L1510.1 905.623L1562.3 894.876L1528.44 989.266Z" fill="white"/>
<path d="M1731.09 746.682L1718.61 831.503L1771.22 838.579L1731.09 746.682Z" fill="white"/>
<path d="M1731.05 746.682L1772.63 822.182L1725.52 846.355L1731.05 746.682Z" fill="white"/>
<path d="M1824.83 790.783L1737.33 805.759L1746.48 856.214L1824.83 790.783Z" fill="white"/>
<path d="M1824.73 790.705L1762.99 852.345L1724.78 816.751L1824.73 790.705Z" fill="white"/>
<path d="M1658.48 819.143L1738.16 856.571L1761.59 810.328L1658.48 819.143Z" fill="white"/>
<path d="M1658.48 819.166L1745.97 804.191L1755.13 854.647L1658.48 819.166Z" fill="white"/>
<path d="M1810.21 890.316L1768.67 814.848L1721.53 839.053L1810.21 890.316Z" fill="white"/>
<path d="M1810.1 890.414L1730.44 853.013L1753.9 806.744L1810.1 890.414Z" fill="white"/>
<path d="M1707.37 907.885L1769.12 846.238L1730.91 810.651L1707.37 907.885Z" fill="white"/>
<path d="M1707.46 907.973L1719.96 823.134L1772.55 830.192L1707.46 907.973Z" fill="white"/>
</g>
<defs>
<clipPath id="clip0_603_158955">
<rect width="3619" height="2054" rx="32" fill="white"/>
</clipPath>
</defs>
</svg>
