<svg width="24" height="24" viewBox="0 0 24 24" fill="none" xmlns="http://www.w3.org/2000/svg">
<g clip-path="url(#clip0_1142_3977)">
<path d="M18 6.88344C18 7.07796 17.9414 7.2681 17.8315 7.42983C17.7216 7.59156 17.5654 7.71762 17.3827 7.79205C17.2 7.86649 16.9989 7.88596 16.8049 7.84802C16.6109 7.81007 16.4327 7.7164 16.2929 7.57886C16.153 7.44132 16.0578 7.26608 16.0192 7.07531C15.9806 6.88453 16.0004 6.68679 16.0761 6.50709C16.1518 6.32738 16.28 6.17378 16.4444 6.06572C16.6089 5.95765 16.8022 5.89997 17 5.89997C17.2652 5.89997 17.5196 6.00359 17.7071 6.18802C17.8946 6.37246 18 6.62261 18 6.88344ZM14 8.85039C13.8022 8.85039 13.6089 8.90806 13.4444 9.01613C13.28 9.1242 13.1518 9.27779 13.0761 9.4575C13.0004 9.6372 12.9806 9.83495 13.0192 10.0257C13.0578 10.2165 13.153 10.3917 13.2929 10.5293C13.4327 10.6668 13.6109 10.7605 13.8049 10.7984C13.9989 10.8364 14.2 10.8169 14.3827 10.7425C14.5654 10.668 14.7216 10.542 14.8315 10.3802C14.9414 10.2185 15 10.0284 15 9.83386C15 9.57302 14.8946 9.32287 14.7071 9.13844C14.5196 8.954 14.2652 8.85039 14 8.85039ZM11 11.8008C10.8022 11.8008 10.6089 11.8585 10.4444 11.9665C10.28 12.0746 10.1518 12.2282 10.0761 12.4079C10.0004 12.5876 9.98063 12.7854 10.0192 12.9761C10.0578 13.1669 10.153 13.3421 10.2929 13.4797C10.4327 13.6172 10.6109 13.7109 10.8049 13.7488C10.9989 13.7868 11.2 13.7673 11.3827 13.6929C11.5654 13.6184 11.7216 13.4924 11.8315 13.3307C11.9414 13.1689 12 12.9788 12 12.7843C12 12.5234 11.8946 12.2733 11.7071 12.0889C11.5196 11.9044 11.2652 11.8008 11 11.8008ZM23.866 2.90825L23.791 3.11577C22.289 7.21487 20.848 11.1124 18 14.5742V14.7512C17.9982 16.2576 17.6772 17.7471 17.0574 19.1246C16.4375 20.5021 15.5325 21.7375 14.4 22.7517C13.8005 23.2957 13.0157 23.5992 12.2 23.6025C11.3511 23.5999 10.5378 23.2666 9.93806 22.6757C9.33834 22.0848 9.00105 21.2843 9 20.4494V19.3175C8.26209 19.0834 7.59039 18.6822 7.039 18.1462L7 18.1088L4.707 20.3639C4.5184 20.543 4.2658 20.6422 4.0036 20.6399C3.7414 20.6377 3.49059 20.5342 3.30518 20.3519C3.11977 20.1696 3.0146 19.9229 3.01233 19.665C3.01005 19.4072 3.11084 19.1587 3.293 18.9733L5.586 16.7182L5.547 16.6808C5.00157 16.1379 4.59269 15.4771 4.353 14.7512H3.363C2.47149 14.7504 1.61671 14.4019 0.98623 13.782C0.355746 13.1621 0.00105907 12.3216 0 11.4448C0.00176888 10.5885 0.337503 9.76549 0.938 9.14543C1.9835 8.08943 3.23879 7.25635 4.62576 6.69801C6.01272 6.13967 7.50169 5.86802 9 5.89997H9.18C12.7 3.10003 16.66 1.68285 20.826 0.206658L21.042 0.130931C21.4362 -0.0115922 21.8636 -0.0401678 22.2738 0.0485807C22.684 0.137329 23.0598 0.339693 23.3568 0.631762C23.6537 0.92383 23.8595 1.2934 23.9497 1.6968C24.04 2.1002 24.0109 2.52057 23.866 2.90825ZM3.363 12.7843H4.1C4.17512 11.9177 4.48258 11.0863 4.991 10.3748C5.54904 9.58514 6.15305 8.82792 6.8 8.10688C5.12253 8.44836 3.58896 9.27994 2.4 10.4928C2.14706 10.7477 2.00379 11.0886 2 11.4448C2.00053 11.8 2.14433 12.1406 2.39986 12.3917C2.65539 12.6428 3.00176 12.784 3.363 12.7843ZM15.7 16.966C14.9827 17.5835 14.2309 18.161 13.448 18.6959C12.7239 19.1911 11.8791 19.4884 11 19.5574V20.4494C11.0005 20.764 11.1279 21.0655 11.3542 21.2879C11.5804 21.5102 11.8871 21.6352 12.207 21.6355C12.5241 21.6309 12.828 21.5099 13.059 21.2962C14.3482 20.1356 15.2659 18.631 15.7 16.966ZM21.937 2.02805C21.9104 1.9989 21.8751 1.97867 21.8362 1.97021C21.7973 1.96174 21.7567 1.96546 21.72 1.98084L21.505 2.05755C16.661 3.77371 12.478 5.25678 8.876 8.79826C8.04974 9.63624 7.29768 10.542 6.628 11.5058C6.22066 12.0744 6.03069 12.7662 6.09162 13.4592C6.15255 14.1522 6.46046 14.8017 6.961 15.2931L8.453 16.7585C8.95242 17.2504 9.6124 17.5531 10.3166 17.6132C11.0208 17.6733 11.7239 17.4869 12.302 17.087C13.2814 16.4284 14.2017 15.6888 15.053 14.8761C18.653 11.3356 20.163 7.21782 21.909 2.45192L21.985 2.24441C22.0012 2.20797 22.0053 2.16743 21.9966 2.12858C21.988 2.08973 21.9671 2.05455 21.937 2.02805Z" fill="#009BA9"/>
</g>
<defs>
<clipPath id="clip0_1142_3977">
<rect width="24" height="23.6033" fill="white"/>
</clipPath>
</defs>
</svg>
