<svg width="25" height="24" viewBox="0 0 25 24" fill="none" xmlns="http://www.w3.org/2000/svg">
<path d="M11.0033 21.5757C11.0033 21.3812 11.062 21.191 11.1718 21.0293C11.2817 20.8676 11.4379 20.7415 11.6206 20.6671C11.8033 20.5926 12.0044 20.5732 12.1984 20.6111C12.3924 20.6491 12.5706 20.7427 12.7104 20.8803C12.8503 21.0178 12.9455 21.193 12.9841 21.3838C13.0227 21.5746 13.0029 21.7723 12.9272 21.952C12.8515 22.1317 12.7233 22.2853 12.5589 22.3934C12.3944 22.5015 12.2011 22.5591 12.0033 22.5591C11.7381 22.5591 11.4837 22.4555 11.2962 22.2711C11.1087 22.0867 11.0033 21.8365 11.0033 21.5757ZM15.5383 19.4888C15.7258 19.3043 15.8311 19.0542 15.8311 18.7934C15.8311 18.5327 15.7258 18.2826 15.5383 18.0981C14.6007 17.1763 13.3291 16.6584 12.0033 16.6584C10.6775 16.6584 9.40595 17.1763 8.46831 18.0981C8.28615 18.2836 8.18535 18.532 8.18763 18.7899C8.18991 19.0478 8.29508 19.2944 8.48049 19.4768C8.6659 19.6591 8.91671 19.7625 9.17891 19.7648C9.4411 19.767 9.6937 19.6679 9.88231 19.4888C10.454 18.9528 11.2135 18.6538 12.0033 18.6538C12.7931 18.6538 13.5526 18.9528 14.1243 19.4888C14.3118 19.6731 14.5661 19.7767 14.8313 19.7767C15.0965 19.7767 15.3508 19.6731 15.5383 19.4888ZM18.3673 16.7075C18.5548 16.5231 18.6601 16.273 18.6601 16.0122C18.6601 15.7514 18.5548 15.5013 18.3673 15.3169C16.6782 13.6593 14.3895 12.7284 12.0033 12.7284C9.61715 12.7284 7.32843 13.6593 5.63931 15.3169C5.45715 15.5024 5.35635 15.7508 5.35863 16.0086C5.36091 16.2665 5.46608 16.5132 5.65149 16.6955C5.8369 16.8779 6.08771 16.9813 6.34991 16.9835C6.6121 16.9858 6.86471 16.8866 7.05331 16.7075C8.36751 15.4189 10.1476 14.6954 12.0033 14.6954C13.8591 14.6954 15.6391 15.4189 16.9533 16.7075C17.1408 16.8919 17.3951 16.9954 17.6603 16.9954C17.9255 16.9954 18.1798 16.8919 18.3673 16.7075ZM5.99031 20.7505C6.01146 20.6231 6.00687 20.4928 5.9768 20.367C5.94674 20.2413 5.89178 20.1226 5.81508 20.0178C5.73838 19.9129 5.64143 19.824 5.52977 19.756C5.41811 19.688 5.29392 19.6423 5.16431 19.6215C4.40866 19.504 3.70651 19.1654 3.14931 18.6499C2.5921 18.1343 2.20566 17.4657 2.04031 16.7311C1.9327 16.0287 2.05047 15.3107 2.37722 14.6772C2.70397 14.0436 3.22344 13.5261 3.86331 13.1965C4.32393 12.9479 4.66659 12.5311 4.81723 12.036C4.96786 11.541 4.91437 11.0075 4.66831 10.551C4.27947 9.82267 4.04976 9.02247 3.99391 8.20172C3.93807 7.38096 4.05733 6.55779 4.34404 5.78504C4.63075 5.01229 5.07857 4.30703 5.65876 3.71453C6.23896 3.12202 6.9387 2.65536 7.71309 2.3445C8.48748 2.03364 9.3194 1.88544 10.1555 1.90943C10.9915 1.93341 11.8132 2.12904 12.5679 2.48376C13.3225 2.83848 13.9934 3.34446 14.5375 3.96922C15.0816 4.59397 15.4869 5.32371 15.7273 6.11158C15.8753 6.58631 16.139 7.0183 16.4954 7.37001C16.8518 7.72171 17.2901 7.98249 17.7723 8.12966C19.0787 8.52078 20.2093 9.34039 20.9757 10.4519C21.7422 11.5634 22.0981 12.8997 21.9843 14.238C21.8949 15.243 21.5308 16.2055 20.9304 17.0236C20.3301 17.8417 19.516 18.4848 18.5743 18.8849C18.3411 19.0005 18.1632 19.2013 18.0785 19.4442C17.9938 19.6872 18.0092 19.9531 18.1212 20.1851C18.2333 20.4171 18.4332 20.5968 18.6782 20.6857C18.9232 20.7746 19.1939 20.7658 19.4323 20.661C20.6951 20.1168 21.7846 19.2465 22.5851 18.1425C23.3857 17.0385 23.8674 15.7419 23.9793 14.3904C24.1303 12.6061 23.6549 10.8248 22.6322 9.34349C21.6095 7.86219 20.1014 6.77043 18.3593 6.25025C18.1878 6.19782 18.0321 6.10448 17.9061 5.97853C17.7801 5.85258 17.6878 5.69793 17.6373 5.52838C17.1079 3.85656 16.0266 2.40619 14.5645 1.40694C13.1024 0.40768 11.3432 -0.0833573 9.5654 0.011577C7.78757 0.106511 6.09275 0.781992 4.74929 1.93106C3.40584 3.08013 2.49053 4.63711 2.14831 6.35548C1.79872 8.09415 2.07371 9.89826 2.92631 11.4597C1.92132 11.9765 1.10517 12.7886 0.59148 13.783C0.0777893 14.7773 -0.107884 15.9045 0.0603072 17.0075C0.288791 18.1563 0.869572 19.2087 1.72451 20.0231C2.57944 20.8375 3.66751 21.3749 4.84231 21.5629C4.97192 21.5837 5.10443 21.5792 5.23228 21.5496C5.36012 21.52 5.48079 21.466 5.58739 21.3906C5.69399 21.3151 5.78444 21.2198 5.85357 21.11C5.92271 21.0002 5.96917 20.878 5.99031 20.7505Z" fill="#009BA9"/>
</svg>
