<svg width="24" height="24" viewBox="0 0 24 24" fill="none" xmlns="http://www.w3.org/2000/svg">
<path d="M12 0C9.62663 0 7.30655 0.692155 5.33316 1.98894C3.35977 3.28572 1.8217 5.12889 0.913451 7.28536C0.00519943 9.44182 -0.232441 11.8147 0.230582 14.104C0.693605 16.3933 1.83649 18.4962 3.51472 20.1467C5.19295 21.7972 7.33115 22.9212 9.65892 23.3765C11.9867 23.8319 14.3995 23.5982 16.5922 22.705C18.7849 21.8117 20.6591 20.2991 21.9776 18.3583C23.2962 16.4175 24 14.1358 24 11.8017C23.9966 8.6727 22.7312 5.67287 20.4815 3.46036C18.2318 1.24786 15.1815 0.0033842 12 0ZM12 21.6364C10.0222 21.6364 8.08879 21.0596 6.4443 19.9789C4.79981 18.8983 3.51809 17.3623 2.76121 15.5652C2.00433 13.7682 1.8063 11.7907 2.19215 9.883C2.578 7.97525 3.53041 6.22287 4.92894 4.84746C6.32746 3.47205 8.10929 2.53539 10.0491 2.15591C11.9889 1.77644 13.9996 1.9712 15.8268 2.71556C17.6541 3.45993 19.2159 4.72047 20.3147 6.33778C21.4135 7.95509 22 9.85653 22 11.8017C21.9971 14.4091 20.9426 16.9089 19.0679 18.7527C17.1931 20.5964 14.6513 21.6335 12 21.6364Z" fill="#009BA9"/>
<path d="M11.9985 5.90039C11.7333 5.90039 11.4789 6.00401 11.2914 6.18844C11.1038 6.37288 10.9985 6.62303 10.9985 6.88386V11.1374L7.62748 13.2145C7.40205 13.353 7.24179 13.5739 7.18197 13.8286C7.12214 14.0833 7.16765 14.3509 7.30848 14.5726C7.44931 14.7943 7.67393 14.952 7.93291 15.0108C8.1919 15.0696 8.46405 15.0249 8.68948 14.8864L12.5295 12.526C12.6746 12.4366 12.7939 12.3121 12.876 12.1643C12.9581 12.0166 13.0003 11.8506 12.9985 11.6822V6.88386C12.9985 6.62303 12.8931 6.37288 12.7056 6.18844C12.5181 6.00401 12.2637 5.90039 11.9985 5.90039Z" fill="#009BA9"/>
</svg>
