<svg width="19" height="16" viewBox="0 0 19 16" fill="none" xmlns="http://www.w3.org/2000/svg">
<path d="M14.3395 0H3.77355C2.77311 0.00114459 1.81399 0.381238 1.10657 1.05691C0.399153 1.73257 0.00119837 2.64865 0 3.60418L0 12.2542C0.00119837 13.2098 0.399153 14.1258 1.10657 14.8015C1.81399 15.4772 2.77311 15.8573 3.77355 15.8584H14.3395C15.3399 15.8573 16.2991 15.4772 17.0065 14.8015C17.7139 14.1258 18.1119 13.2098 18.113 12.2542V3.60418C18.1119 2.64865 17.7139 1.73257 17.0065 1.05691C16.2991 0.381238 15.3399 0.00114459 14.3395 0ZM3.77355 1.44167H14.3395C14.7914 1.44252 15.2327 1.57252 15.6066 1.81493C15.9805 2.05733 16.2699 2.40107 16.4376 2.80189L10.658 8.32278C10.2327 8.7274 9.65683 8.95457 9.05652 8.95457C8.45622 8.95457 7.88036 8.7274 7.45503 8.32278L1.67546 2.80189C1.84311 2.40107 2.13252 2.05733 2.50643 1.81493C2.88034 1.57252 3.32164 1.44252 3.77355 1.44167ZM14.3395 14.4167H3.77355C3.17307 14.4167 2.59718 14.1889 2.17257 13.7833C1.74796 13.3778 1.50942 12.8278 1.50942 12.2542V4.68544L6.38787 9.34204C7.09626 10.0169 8.05597 10.3959 9.05652 10.3959C10.0571 10.3959 11.0168 10.0169 11.7252 9.34204L16.6036 4.68544V12.2542C16.6036 12.8278 16.3651 13.3778 15.9405 13.7833C15.5159 14.1889 14.94 14.4167 14.3395 14.4167Z" fill="#FFB26D"/>
</svg>
