<?xml version="1.0" encoding="UTF-8" standalone="no"?>
<!-- Created with Inkscape (http://www.inkscape.org/) -->

<svg
   width="550"
   height="150"
   viewBox="0 0 145.52083 39.6875"
   version="1.1"
   id="svg1"
   inkscape:version="1.3.1 (9b9bdc1480, 2023-11-25, custom)"
   sodipodi:docname="wp-logo.svg"
   xmlns:inkscape="http://www.inkscape.org/namespaces/inkscape"
   xmlns:sodipodi="http://sodipodi.sourceforge.net/DTD/sodipodi-0.dtd"
   xmlns="http://www.w3.org/2000/svg"
   xmlns:svg="http://www.w3.org/2000/svg">
  <sodipodi:namedview
     id="namedview1"
     pagecolor="#ffffff"
     bordercolor="#000000"
     borderopacity="0.25"
     inkscape:showpageshadow="2"
     inkscape:pageopacity="0.0"
     inkscape:pagecheckerboard="0"
     inkscape:deskcolor="#d1d1d1"
     inkscape:document-units="mm"
     inkscape:zoom="0.74835468"
     inkscape:cx="280.6156"
     inkscape:cy="-199.10345"
     inkscape:window-width="1440"
     inkscape:window-height="836"
     inkscape:window-x="0"
     inkscape:window-y="27"
     inkscape:window-maximized="1"
     inkscape:current-layer="g2" />
  <defs
     id="defs1" />
  <g
     inkscape:label="Capa 1"
     inkscape:groupmode="layer"
     id="layer1">
    <rect
       style="fill:#129caa;fill-opacity:1;stroke-width:0.166743"
       id="rect1"
       width="145.52083"
       height="39.6875"
       x="2.5431316e-06"
       y="-3.5527137e-15" />
    <g
       id="g15"
       transform="matrix(0.53326649,0,0,0.53326649,0.52058165,-104.79217)">
      <g
         id="g2"
         transform="translate(4.96156)">
        <rect
           style="fill:#ffffff;fill-opacity:1;stroke-width:0.211055"
           id="rect2"
           width="86.869812"
           height="61.229401"
           x="8.8640757"
           y="200.75993" />
        <rect
           style="fill:#f9ac85;fill-opacity:1;stroke-width:0.0978184"
           id="rect15"
           width="155.05893"
           height="67.624893"
           x="97.338997"
           y="202.63759" />
        <path
           style="fill:#129caa;fill-opacity:1;stroke-width:0.434083"
           d="m 7.9384888,233.72164 v -37.2117 H 133.48204 253.07173 v 37.2117 37.21169 H 133.48204 7.9384888 Z M 114.9336,257.09852 c 5.50428,-0.83935 7.53534,-2.96706 7.92577,-8.30301 0.0589,-0.80521 0.10862,-7.67891 0.11047,-15.27487 l 0.003,-13.81082 h -2.2448 -2.2448 l 0.0571,0.37327 c 0.0314,0.2053 0.089,0.9674 0.128,1.69355 l 0.071,1.32028 -0.33295,-0.4589 c -0.96095,-1.32444 -2.6446,-2.3643 -4.64114,-2.86645 -1.49732,-0.37658 -3.71666,-0.56701 -5.49327,-0.47131 -2.83858,0.1529 -4.41649,0.48718 -6.07109,1.28613 -2.481657,1.19834 -3.681087,3.25117 -4.343171,7.43348 -0.2559,1.6165 -0.295475,7.57146 -0.0612,9.20473 0.421234,2.93624 1.209704,4.98939 2.405511,6.2638 0.86246,0.91916 1.6697,1.41307 3.10781,1.90156 1.58793,0.53938 3.1374,0.73598 5.7808,0.73348 4.85125,-0.006 7.61169,-0.89013 9.07601,-2.9116 l 0.32703,-0.45144 v 3.16552 c 0,4.10878 -0.19636,5.19938 -1.15378,6.40822 -0.44553,0.56253 -1.69768,1.19158 -2.84101,1.42726 -2.32267,0.47878 -6.71003,0.45017 -8.70731,-0.0567 -1.84697,-0.4688 -2.60039,-1.45664 -2.75843,-3.61674 -0.10753,-1.46957 0.14356,-1.32078 -2.2287,-1.32078 h -2.065127 l 9.4e-4,0.94752 c 0.002,1.26479 0.35513,2.90958 0.84702,3.94537 1.084907,2.28448 2.808407,3.10772 7.650447,3.65429 1.01209,0.11424 6.54901,-0.041 7.69502,-0.21577 z m -7.01672,-14.30753 c -2.49781,-0.29199 -4.00843,-1.11947 -4.68398,-2.56574 -0.76743,-1.64302 -0.99177,-3.38646 -0.98465,-7.65212 0.008,-4.40953 0.28175,-6.18806 1.20003,-7.77874 0.92284,-1.59858 3.33032,-2.30656 7.40813,-2.17848 4.23811,0.13312 6.03774,1.04322 6.82319,3.45059 0.54231,1.66221 0.63899,2.58339 0.64059,6.10465 0.003,8.01203 -1.15172,10.01038 -6.13999,10.61968 -1.09328,0.13354 -3.12164,0.13362 -4.26332,1.6e-4 z m -51.155265,3.05008 c 2.773426,-0.3664 4.511099,-1.00147 5.666105,-2.07082 1.201541,-1.11242 1.721007,-2.42871 1.823971,-4.62192 l 0.06607,-1.40691 h -2.238999 -2.238951 l -0.0698,1.06263 c -0.157744,2.40154 -0.909879,3.29244 -3.139573,3.71885 -1.463986,0.27997 -6.548782,0.34709 -8.176374,0.10793 -2.069529,-0.30409 -3.156082,-0.78921 -3.873054,-1.72921 -0.687456,-0.90129 -1.125707,-2.90658 -1.269301,-5.80799 l -0.07927,-1.6017 h 10.525929 10.525961 l -2.61e-4,-1.52177 c 0,-2.92929 -0.31497,-5.7688 -0.820156,-7.40639 -0.5268,-1.70771 -1.47514,-3.01901 -2.67273,-3.69569 -2.063584,-1.16594 -5.607287,-1.70461 -10.438493,-1.58674 -5.885331,0.1436 -8.774407,1.30891 -10.173022,4.10329 -1.014623,2.02713 -1.393143,4.09547 -1.477008,8.07061 -0.109388,5.18647 0.378434,8.48125 1.598161,10.79354 1.166248,2.21082 3.770438,3.36812 8.478669,3.76782 1.636489,0.13895 6.393683,0.0343 7.98212,-0.17553 z M 43.416973,228.86918 c 0.110081,-2.3975 0.608929,-4.04509 1.476052,-4.87493 1.104001,-1.05662 4.190066,-1.64511 7.733957,-1.47486 5.766378,0.27706 6.869598,1.26262 7.107822,6.34979 l 0.07128,1.52177 h -8.229485 -8.229505 z m 98.966017,16.9237 c 2.31391,-0.40585 4.08455,-1.16533 5.15071,-2.20931 0.3255,-0.31876 0.59183,-0.52698 0.59183,-0.46273 0,0.14258 -0.2092,1.77131 -0.29374,2.28689 l -0.0612,0.37324 h 2.25432 2.25432 l -0.0498,-9.67617 c -0.0486,-9.45523 -0.0556,-9.70242 -0.30296,-10.82471 -0.66447,-3.01476 -1.99353,-4.45698 -4.86159,-5.27553 -1.93655,-0.55269 -3.38081,-0.69049 -7.26599,-0.69336 -3.72102,-0.002 -4.93653,0.0928 -6.71878,0.52782 -3.12492,0.76283 -4.44729,2.48923 -4.67346,6.10146 l -0.0701,1.11981 h 2.19951 2.19953 l 4.3e-4,-0.71783 c 8.3e-4,-1.11505 0.16895,-1.5378 0.90041,-2.26627 0.73944,-0.73642 1.56786,-1.12252 3.1322,-1.4598 0.77777,-0.1677 1.49241,-0.20758 3.71919,-0.20758 3.10696,0 4.05472,0.1404 5.26514,0.77993 0.81389,0.43003 1.15892,0.86006 1.51263,1.88524 0.39337,1.14016 0.51526,2.29462 0.51526,4.88051 v 2.30333 l -0.52421,-0.48318 c -1.06224,-0.97915 -2.8299,-1.56915 -5.5504,-1.8526 -1.64249,-0.17114 -6.57186,-0.0674 -7.87977,0.16575 -3.91818,0.69859 -5.59385,2.00365 -6.39116,4.97755 -0.29935,1.11657 -0.36656,4.18123 -0.1141,5.2028 0.75532,3.05631 3.23269,4.96318 7.23958,5.57243 1.64017,0.2494 1.9411,0.26491 4.31911,0.2227 1.52191,-0.0269 2.5818,-0.10883 3.50295,-0.27039 z m -6.47949,-3.12512 c -1.97361,-0.28785 -2.90418,-0.74293 -3.47888,-1.70126 -0.49549,-0.82629 -0.65916,-1.63928 -0.66079,-3.28251 -0.002,-2.2238 0.50726,-3.43234 1.6911,-4.01154 1.19701,-0.58564 2.0924,-0.6877 6.05678,-0.69025 3.25914,-0.002 3.72598,0.0215 4.7089,0.23911 1.84909,0.40916 2.77165,1.00207 3.29645,2.11849 0.57383,1.2208 0.64494,3.19452 0.15562,4.31984 -0.30722,0.70654 -1.21082,1.6068 -2.02884,2.02131 -0.80458,0.40772 -1.98541,0.7427 -3.31829,0.94138 -1.26333,0.18829 -5.24912,0.21649 -6.42205,0.0454 z m 48.62978,3.22669 c 4.36191,-0.50317 6.59947,-1.79573 7.46936,-4.3148 0.27998,-0.81075 0.52096,-2.82081 0.40945,-3.41521 l -0.0794,-0.42302 h -2.21963 -2.21964 l -0.0541,1.23465 c -0.063,1.43662 -0.3006,2.07404 -1.01325,2.71786 -0.9091,0.82131 -2.32657,1.04351 -6.65714,1.04351 -2.75626,0 -3.54945,-0.0362 -4.25337,-0.19331 -1.96789,-0.43968 -2.85673,-0.96628 -3.4225,-2.02777 -0.62498,-1.17257 -1.0528,-3.61197 -1.0528,-6.00294 v -1.02149 h 10.46506 10.46505 l -0.0568,-2.95741 c -0.13393,-6.96895 -1.44265,-9.41852 -5.63154,-10.54075 -2.04897,-0.54894 -3.40636,-0.67769 -7.14475,-0.67777 -3.74591,-7e-5 -4.79265,0.10527 -6.77193,0.68153 -4.06569,1.18372 -5.55644,3.81005 -5.91771,10.4256 -0.19038,3.48587 0.11977,7.48165 0.75354,9.70845 0.99404,3.49251 2.8574,4.94815 7.22721,5.64576 2.17982,0.34801 7.18031,0.40835 9.70491,0.11711 z m -13.04124,-16.68072 c 0.19943,-3.06658 0.78851,-4.79335 1.88117,-5.5141 1.42385,-0.93919 4.77058,-1.39638 8.25636,-1.12787 2.9233,0.22519 4.42677,0.7197 5.16068,1.69745 0.70501,0.93925 1.06746,2.57306 1.07143,4.82967 l 0.002,1.29207 h -8.22421 -8.22425 z m 72.41918,16.62545 c 5.23264,-0.73886 6.99218,-2.33863 7.80566,-7.09693 0.50536,-2.95608 0.57612,-7.83812 0.16012,-11.04973 -0.37405,-2.88786 -1.12838,-4.92442 -2.23315,-6.02919 -1.042,-1.042 -3.14177,-1.81882 -5.96234,-2.2058 -1.70564,-0.234 -7.62391,-0.19674 -9.33333,0.0588 -2.7718,0.41431 -4.56873,1.13212 -5.63659,2.25165 -0.7231,0.75811 -1.07732,1.4088 -1.50427,2.7633 -1.1932,3.78554 -1.24903,12.00818 -0.10823,15.9448 0.6658,2.29758 1.50006,3.39861 3.19011,4.21031 1.46588,0.70401 3.25464,1.11338 5.81213,1.33011 1.67521,0.14195 6.29117,0.0371 7.80989,-0.17726 z m -8.20716,-3.21981 c -3.14819,-0.5096 -3.95619,-1.29413 -4.48159,-4.35146 -0.276,-1.60614 -0.41149,-5.32493 -0.28696,-7.87696 0.20073,-4.11412 0.68922,-5.92464 1.80762,-6.69969 1.13218,-0.7846 3.08641,-1.13851 6.34435,-1.14896 3.3958,-0.0108 5.51395,0.36935 6.65266,1.19422 1.00013,0.7245 1.51156,2.54778 1.74115,6.20723 0.29644,4.72505 -0.1653,9.39362 -1.0787,10.90663 -0.46243,0.766 -1.33917,1.27239 -2.79114,1.61208 -1.36515,0.31936 -6.29887,0.41727 -7.90739,0.15691 z m -152.928734,3.16304 c 5.487934,-0.26782 8.099471,-1.29231 9.34724,-3.66683 0.832392,-1.58406 1.261384,-3.74188 1.455943,-7.32349 0.214667,-3.95179 -0.155979,-8.09336 -0.931455,-10.40801 -0.926513,-2.76546 -2.189474,-3.7196 -6.091493,-4.60201 -0.26505,-0.0599 -0.312135,-0.15188 -0.437758,-0.85483 -0.429655,-2.4043 -1.368489,-2.9446 -5.122649,-2.94813 -2.608009,-0.002 -3.532952,0.20047 -4.335309,0.95115 -0.378301,0.35393 -0.746621,1.28716 -0.847806,2.14797 -0.07211,0.61346 -0.08265,0.62847 -0.48882,0.69475 -0.921209,0.15026 -2.529962,0.65331 -3.316736,1.03708 -1.975507,0.96364 -2.978195,2.80627 -3.543456,6.51191 -0.244605,1.60369 -0.343619,6.93427 -0.166123,8.94304 0.250509,2.83476 0.823323,5.06622 1.618649,6.30562 1.281065,1.99638 3.965688,2.97659 8.782569,3.20671 0.947514,0.0452 1.748614,0.0896 1.780215,0.0983 0.03169,0.009 1.065237,-0.0333 2.296989,-0.0933 z m -5.340558,-3.3796 c -3.065358,-0.50665 -3.878611,-1.26286 -4.366388,-4.06004 -0.383861,-2.20109 -0.502538,-6.04545 -0.279159,-9.04288 0.228414,-3.06525 0.785776,-4.86761 1.701471,-5.50219 1.037284,-0.71884 2.655109,-1.07062 5.413398,-1.17708 3.044566,-0.1175 5.720943,0.24885 7.034302,0.96291 1.505659,0.81859 2.00688,2.69021 2.120379,7.91776 0.115807,5.33382 -0.358118,8.5528 -1.415828,9.61656 -0.441653,0.44418 -1.514388,0.93061 -2.570583,1.16563 -1.169245,0.26019 -6.300358,0.34035 -7.637592,0.11933 z m 5.570274,-5.63762 v -2.12474 h 2.182176 2.182161 v -2.18218 -2.18216 h -2.182161 -2.182176 v -2.12474 -2.12473 H 80.880296 78.75555 v 2.12473 2.12474 h -2.124746 -2.124745 v 2.18216 2.18218 h 2.124745 2.124746 v 2.12474 2.12474 h 2.124746 2.124746 z m -5.232471,-17.78524 c 0.100882,-0.63114 0.3612,-1.07727 0.744191,-1.27532 0.528365,-0.27324 1.924417,-0.44159 3.05264,-0.36816 1.714886,0.11163 2.236002,0.39651 2.52879,1.38252 0.09363,0.3152 0.170203,0.6025 0.170203,0.63842 4.3e-5,0.0359 -1.477485,0.0652 -3.283311,0.0652 h -3.283312 z m 84.594479,8.13775 v -18.66326 h -2.23959 -2.23959 v 18.66326 18.66327 h 2.23959 2.23959 z m 38.96456,10.02076 c 0.0371,-7.62882 0.0647,-8.72667 0.23423,-9.35975 0.68118,-2.54299 2.37931,-4.16319 5.09024,-4.85669 1.42532,-0.36463 3.4673,-0.50458 5.16102,-0.35371 3.21962,0.28674 4.36294,0.93885 5.01468,2.86019 l 0.26134,0.7704 0.0326,9.79104 0.0326,9.79103 h 2.17849 2.17847 l -0.002,-9.50389 c -0.002,-5.73791 -0.048,-9.82249 -0.11758,-10.30788 -0.6073,-4.23401 -2.21979,-5.8057 -6.67971,-6.51073 -1.48989,-0.23552 -6.29712,-0.19992 -7.67164,0.0568 -2.75716,0.51499 -4.60684,1.54901 -5.64051,3.15321 l -0.35071,0.5443 0.081,-1.80891 0.0808,-1.8089 h -2.13866 -2.13866 v 13.09301 13.093 h 2.17617 2.17617 z M 13.866797,237.0236 c 0.0043,-9.29118 -0.0043,-9.21193 0.79884,-10.84007 0.818853,-1.66135 2.303502,-2.74167 4.589162,-3.33928 0.910834,-0.23815 1.453221,-0.29698 3.166412,-0.34338 3.998315,-0.10834 6.028691,0.50306 6.800142,2.04769 0.667055,1.33565 0.650082,1.05953 0.694792,11.32653 l 0.04123,9.4465 h 2.17549 2.175534 v -9.27421 c 0,-9.84736 -0.03039,-10.48526 -0.563221,-12.20293 -0.236704,-0.76256 -0.861567,-1.90672 -1.310494,-2.3995 -0.752048,-0.82546 -2.392967,-1.54017 -4.384969,-1.9099 -1.390496,-0.2581 -5.799799,-0.36232 -7.409767,-0.17513 -2.796488,0.32511 -4.60227,1.04364 -5.920622,2.35587 -0.44641,0.44434 -0.885701,0.92784 -0.976207,1.07442 -0.146547,0.23728 -0.160567,0.0765 -0.127621,-1.46435 l 0.0369,-1.73089 H 11.519365 9.3863724 v 12.8633 12.86332 h 2.2396036 2.239561 z"
           id="path1"
           sodipodi:nodetypes="cccccccccssccccsscsssssssssscssssssccsssssssssscssssscccsssssccccsssssssssssscccssssscccssscssccccsssssscssssssssssssscssssssssscccssscsscccsssssssscssscccccsssssssssssssssssssssssssssscssssssssssssssscsssscccccscccccccccccccccccccsssssccscccccsccccsssssccccsssssccccccccccccsssccccscssssscccccccccccccc" />
      </g>
    </g>
  </g>
</svg>
