<svg width="629" height="632" viewBox="0 0 629 632" fill="none" xmlns="http://www.w3.org/2000/svg">
<path fill-rule="evenodd" clip-rule="evenodd" d="M537.356 91.8452C478.227 32.6492 399.59 0.0347167 315.815 0C143.189 0 2.69644 140.483 2.62701 313.149C2.60386 368.345 17.0235 422.226 44.4315 469.718L0 632L166.026 588.45C211.773 613.403 263.275 626.553 315.688 626.569H315.819C488.426 626.569 628.934 486.074 629 313.4C629.035 229.717 596.488 151.037 537.356 91.8452ZM315.815 573.68H315.707C269 573.66 223.191 561.108 183.219 537.397L173.718 531.753L75.1956 557.598L101.493 461.544L95.3013 451.696C69.2434 410.252 55.4834 362.351 55.5066 313.169C55.5606 169.653 172.337 52.893 315.92 52.893C385.448 52.9161 450.807 80.0261 499.953 129.227C549.098 178.429 576.147 243.828 576.124 313.381C576.063 456.908 459.294 573.68 315.815 573.68ZM458.6 378.729C450.776 374.81 412.301 355.886 405.126 353.27C397.959 350.659 392.735 349.359 387.524 357.19C382.305 365.02 367.31 382.649 362.743 387.868C358.175 393.091 353.616 393.746 345.789 389.827C337.962 385.912 312.749 377.645 282.856 350.987C259.595 330.238 243.891 304.613 239.324 296.782C234.764 288.944 239.285 285.117 242.757 280.813C251.228 270.293 259.711 259.265 262.319 254.046C264.93 248.823 263.623 244.252 261.663 240.337C259.711 236.421 244.061 197.905 237.541 182.232C231.184 166.98 224.738 169.04 219.932 168.801C215.372 168.573 210.153 168.527 204.933 168.527C199.718 168.527 191.239 170.483 184.064 178.321C176.893 186.155 156.679 205.084 156.679 243.6C156.679 282.116 184.72 319.325 188.631 324.548C192.543 329.771 243.814 408.81 322.312 442.701C340.982 450.771 355.556 455.581 366.924 459.188C385.672 465.143 402.726 464.302 416.213 462.289C431.249 460.04 462.507 443.357 469.034 425.08C475.554 406.8 475.554 391.135 473.594 387.868C471.642 384.604 466.423 382.649 458.6 378.729Z" fill="#FFB26D"/>
</svg>
