<?xml version="1.0" encoding="UTF-8" standalone="no"?>
<svg
   width="200"
   height="200"
   viewBox="0 0 24 24"
   version="1.1"
   id="svg1"
   sodipodi:docname="ai_play2.svg"
   inkscape:version="1.4.2 (ebf0e940d0, 2025-05-08)"
   xmlns:inkscape="http://www.inkscape.org/namespaces/inkscape"
   xmlns:sodipodi="http://sodipodi.sourceforge.net/DTD/sodipodi-0.dtd"
   xmlns="http://www.w3.org/2000/svg"
   xmlns:svg="http://www.w3.org/2000/svg">
  <defs
     id="defs1" />
  <sodipodi:namedview
     id="namedview1"
     pagecolor="#ffffff"
     bordercolor="#000000"
     borderopacity="0.25"
     inkscape:showpageshadow="2"
     inkscape:pageopacity="0.0"
     inkscape:pagecheckerboard="0"
     inkscape:deskcolor="#d1d1d1"
     inkscape:zoom="3.155"
     inkscape:cx="100"
     inkscape:cy="100"
     inkscape:window-width="1600"
     inkscape:window-height="838"
     inkscape:window-x="0"
     inkscape:window-y="30"
     inkscape:window-maximized="1"
     inkscape:current-layer="svg1" />
  <path
     d="m 21.46,14.05 c 0.123333,-6.67e-4 0.236,-0.014 0.338,-0.04 C 20.868,18.568 16.835,22 12,22 6.477,22 2,17.523 2,12 2,6.477 6.477,2 12,2 c 0.957,0 1.883,0.135 2.76,0.386 -0.116667,0.071333 -0.24,0.129 -0.37,0.173 l -1.34,0.44 c -0.626022,0.2181485 -1.046678,0.8070657 -1.05,1.47 0.002,0.635 0.416,1.277 1,1.53 l 1.4,0.46 c 0.516,0.175 1.014,0.566 1.19,1.09 L 16,8.999 c 0.21313,0.6254059 0.799282,1.046954 1.46,1.05 0.236,0.003 0.47,-0.052 0.68,-0.16 -0.117848,0.199984 -0.18,0.427875 -0.18,0.66 -0.004,0.54 0.362,1.048 0.87,1.23 0.074,0.02267 0.155333,0.04467 0.244,0.066 0.36,0.091 0.79,0.2 0.906,0.554 l 0.014,0.045 c 0.236,0.749 0.506,1.605 1.466,1.605 M 10.856,8.155 C 10.022965,7.6932532 9.0002143,8.295552 9,9.248 v 5.504 c 2.143e-4,0.952448 1.022965,1.554747 1.856,1.093 l 5.757,-3.189 c 0.515275,-0.285556 0.515275,-1.026444 0,-1.312 z"
     id="path5"
     sodipodi:nodetypes="ccsssccccccccccccccccccccccc"
     style="fill:#009ba9;fill-opacity:1" />
  <path
     d="M 23.784,10.213 23.018,9.965 C 22.546756,9.807452 22.177076,9.4374018 22.02,8.966 L 21.77,8.202 c -0.09445,-0.2694734 -0.475547,-0.2694734 -0.57,0 l -0.248,0.764 c -0.154177,0.468282 -0.518104,0.8377569 -0.984,0.999 l -0.765,0.248 c -0.269473,0.09445 -0.269473,0.475547 0,0.57 l 0.765,0.249 c 0.472683,0.157633 0.843311,0.529003 1,1.002 l 0.248,0.764 c 0.09445,0.269473 0.475547,0.269473 0.57,0 l 0.249,-0.764 c 0.157282,-0.471626 0.527374,-0.841718 0.999,-0.999 l 0.765,-0.248 c 0.269473,-0.09445 0.269473,-0.475547 0,-0.57 z"
     id="path4"
     style="fill:#009ba9;fill-opacity:1" />
  <path
     d="M 16.088,6.412 C 15.743492,5.967286 15.274673,5.6349015 14.741,5.457 L 13.363,5.009 c -0.482097,-0.1716052 -0.482097,-0.8533948 0,-1.025 L 14.741,3.536 C 15.567254,3.2506696 16.216078,2.600739 16.5,1.774 L 16.511,1.74 16.959,0.363 c 0.169932,-0.48587559 0.857068,-0.48587559 1.027,0 l 0.447,1.377 c 0.283308,0.848607 0.949921,1.5141091 1.799,1.796 l 1.377,0.448 0.028,0.007 c 0.482097,0.1716052 0.482097,0.8533948 0,1.025 L 20.259,5.464 C 19.410303,5.7461574 18.744102,6.4116178 18.461,7.26 L 18.013,8.637 18,8.671 C 17.804471,9.126365 17.151556,9.1044508 16.987,8.637 L 16.539,7.26 C 16.438937,6.9535351 16.2867,6.6666527 16.089,6.412"
     id="path1"
     style="fill:#ffb26d;fill-opacity:1" />
</svg>
