<?xml version="1.0" encoding="UTF-8" standalone="no"?>
<!-- Created with Inkscape (http://www.inkscape.org/) -->

<svg
   width="50mm"
   height="52mm"
   viewBox="0 0 50 52"
   version="1.1"
   id="svg145"
   inkscape:version="1.1.2 (b8e25be8, 2022-02-05)"
   sodipodi:docname="icono.svg"
   xmlns:inkscape="http://www.inkscape.org/namespaces/inkscape"
   xmlns:sodipodi="http://sodipodi.sourceforge.net/DTD/sodipodi-0.dtd"
   xmlns="http://www.w3.org/2000/svg"
   xmlns:svg="http://www.w3.org/2000/svg">
  <sodipodi:namedview
     id="namedview147"
     pagecolor="#ffffff"
     bordercolor="#666666"
     borderopacity="1.0"
     inkscape:pageshadow="2"
     inkscape:pageopacity="0.0"
     inkscape:pagecheckerboard="0"
     inkscape:document-units="mm"
     showgrid="false"
     height="50mm"
     inkscape:zoom="0.9841143"
     inkscape:cx="487.74822"
     inkscape:cy="195.60736"
     inkscape:window-width="1399"
     inkscape:window-height="969"
     inkscape:window-x="460"
     inkscape:window-y="63"
     inkscape:window-maximized="0"
     inkscape:current-layer="layer1"
     width="50mm" />
  <defs
     id="defs142" />
  <g
     inkscape:label="Capa 1"
     inkscape:groupmode="layer"
     id="layer1">
    <ellipse
       class="st0"
       cx="25.003445"
       cy="25.272301"
       id="circle11"
       style="fill:#009ba9;stroke-width:0.256354"
       rx="24.904018"
       ry="25.441729" />
    <path
       class="st1"
       d="m 25.011056,6.35489 c 7.553128,0 12.455814,1.1944838 14.708056,3.5834515 2.252243,2.3889675 3.378364,7.5840665 3.378364,15.5827025 0,7.998637 -1.126121,13.193735 -3.378364,15.582703 -2.252242,2.388968 -7.154928,3.583452 -14.708056,3.583452 -7.52523,0 -12.412699,-1.194484 -14.664941,-3.583452 -2.2522424,-2.388968 -3.3783636,-7.581474 -3.3783636,-15.582703 0,-7.998636 1.1261212,-13.191143 3.3783636,-15.5827025 C 12.598357,7.5493738 17.485826,6.35489 25.011056,6.35489 Z m 0,4.518828 c -5.300888,0 -8.587944,0.787686 -9.853562,2.357875 -1.268154,1.572781 -1.904769,5.666673 -1.904769,12.289451 0,6.622779 0.636615,10.719262 1.904769,12.289451 1.265618,1.572781 4.552674,2.357875 9.853562,2.357875 5.328785,0 8.631059,-0.785094 9.899214,-2.357875 1.265618,-1.570189 1.902232,-5.666672 1.902232,-12.289451 0,-6.622778 -0.636614,-10.719261 -1.902232,-12.289451 -1.268155,-1.572779 -4.570429,-2.357875 -9.899214,-2.357875 z"
       id="path13"
       style="fill:#ffffff;stroke-width:0.256354" />
    <line
       class="st2"
       x1="25.051638"
       y1="16.102501"
       x2="25.051638"
       y2="34.493923"
       id="line15"
       style="fill:none;stroke:#ffffff;stroke-width:6.02756;stroke-miterlimit:10" />
    <line
       class="st2"
       x1="34.088505"
       y1="25.29821"
       x2="16.088322"
       y2="25.29821"
       id="line17"
       style="fill:none;stroke:#ffffff;stroke-width:6.02756;stroke-miterlimit:10" />
    <path
       class="st1"
       d="m 17.632932,9.2828005 c 0,-3.3243444 0.469217,-5.4852979 1.405115,-6.4776781 0.935898,-0.9923803 2.967481,-1.4898659 6.097287,-1.4898659 3.139951,0 5.179144,0.4974856 6.115043,1.4898659 0.935897,0.9923802 1.405114,3.1533337 1.405114,6.4776781 m -2.614935,0 c 0,-2.7543088 -0.263776,-4.4566425 -0.791328,-5.1095925 -0.527552,-0.65295 -1.899696,-0.979425 -4.113894,-0.979425 -2.204053,0 -3.571123,0.326475 -4.098675,0.979425 -0.527552,0.65295 -0.791329,2.3552837 -0.791329,5.1095925"
       id="path21"
       style="fill:#ffffff;stroke-width:0.256354" />
  </g>
</svg>
