<?xml version="1.0" encoding="UTF-8" standalone="no"?>
<!-- Created with Inkscape (http://www.inkscape.org/) -->

<svg
   width="210mm"
   height="50mm"
   viewBox="0 0 210 50"
   version="1.1"
   id="svg145"
   inkscape:version="1.2.2 (732a01da63, 2022-12-09, custom)"
   sodipodi:docname="neogaleno.svg"
   xmlns:inkscape="http://www.inkscape.org/namespaces/inkscape"
   xmlns:sodipodi="http://sodipodi.sourceforge.net/DTD/sodipodi-0.dtd"
   xmlns="http://www.w3.org/2000/svg"
   xmlns:svg="http://www.w3.org/2000/svg">
  <sodipodi:namedview
     id="namedview147"
     pagecolor="#ffffff"
     bordercolor="#666666"
     borderopacity="1.0"
     inkscape:pageshadow="2"
     inkscape:pageopacity="0.0"
     inkscape:pagecheckerboard="0"
     inkscape:document-units="mm"
     showgrid="false"
     height="50mm"
     inkscape:zoom="1.3917478"
     inkscape:cx="404.88658"
     inkscape:cy="166.33761"
     inkscape:window-width="1440"
     inkscape:window-height="836"
     inkscape:window-x="0"
     inkscape:window-y="27"
     inkscape:window-maximized="1"
     inkscape:current-layer="layer1"
     inkscape:showpageshadow="2"
     inkscape:deskcolor="#d1d1d1" />
  <defs
     id="defs142" />
  <g
     inkscape:label="Capa 1"
     inkscape:groupmode="layer"
     id="layer1">
    <path
       class="st1"
       d="m 43.679128,28.185747 h 3.76687 l 0.02482,0.802571 c 0,2.278661 -0.793896,3.871705 -2.385822,4.779135 -1.591926,0.907431 -4.378829,1.363164 -8.364847,1.363164 -4.639328,0 -7.682593,-0.738044 -9.129799,-2.210099 -1.45134,-1.476089 -2.174942,-4.573451 -2.174942,-9.296123 0,-4.371801 0.727738,-7.30381 2.187347,-8.800064 1.455475,-1.496252 4.312673,-2.246394 8.563322,-2.246394 4.639326,0 7.674322,0.649317 9.117393,1.947952 1.438936,1.298633 2.158403,4.033025 2.158403,8.207206 v 1.718068 H 29.314581 c 0,3.452272 0.425893,5.654304 1.277675,6.602065 0.851784,0.947759 2.840659,1.419625 5.970758,1.419625 2.968838,0 4.895689,-0.22585 5.784685,-0.677548 0.884864,-0.451699 1.331429,-1.423658 1.331429,-2.923943 z m 0,-6.235058 -0.02482,-1.032455 c 0,-2.367387 -0.446568,-3.908001 -1.343835,-4.617814 -0.897267,-0.709812 -2.828253,-1.064719 -5.797091,-1.064719 -2.985379,0 -4.924633,0.415401 -5.809496,1.250239 -0.888998,0.834835 -1.331431,2.653729 -1.331431,5.468783 h 14.306661 z"
       id="path27"
       style="fill:#009ba9;stroke-width:0.408363;fill-opacity:1"
       inkscape:export-filename="/Users/luprz/Projects/Neogaleno/ng-front/static/logo2.png"
       inkscape:export-xdpi="96"
       inkscape:export-ydpi="96" />
    <path
       class="st3"
       d="m 106.60362,19.038844 h -3.6635 c 0,-2.552904 0.66158,-4.266943 1.98888,-5.146141 1.3273,-0.8792 3.91986,-1.3188 7.78596,-1.3188 4.1969,0 7.03342,0.536393 8.50957,1.617244 1.47615,1.076818 2.21215,3.129628 2.21215,6.154397 v 14.46243 h -3.6883 l 0.28944,-2.35932 -0.0785,-0.02419 c -1.40586,1.802762 -4.25892,2.70616 -8.56333,2.70616 -6.35944,0 -9.53915,-2.222197 -9.53915,-6.670625 0,-2.645665 0.7112,-4.468592 2.1336,-5.476849 1.42239,-1.008255 3.99428,-1.512383 7.71981,-1.512383 4.42844,0 7.0789,0.758207 7.95549,2.270592 l 0.0786,-0.0242 v -2.657771 c 0,-2.50451 -0.39281,-4.12982 -1.18671,-4.871895 -0.78976,-0.742077 -2.52228,-1.113116 -5.18927,-1.113116 -4.53182,0 -6.79774,1.109081 -6.79774,3.323214 0.007,0.1089 0.0165,0.32264 0.0331,0.64125 z m 5.9294,4.928357 c -2.82825,0 -4.66826,0.262147 -5.52006,0.778374 -0.85177,0.520261 -1.27766,1.633376 -1.27766,3.347412 0,1.77453 0.42176,2.944107 1.26526,3.516799 0.84352,0.572689 2.55535,0.859033 5.13965,0.859033 5.19755,0 7.79837,-1.375261 7.79837,-4.125786 0,-1.726134 -0.50445,-2.887645 -1.51336,-3.484532 -1.01304,-0.592856 -2.97711,-0.8913 -5.8922,-0.8913 z"
       id="path29"
       style="fill:#f9ab85;stroke-width:0.408363"
       inkscape:export-filename="/Users/luprz/Projects/Neogaleno/ng-front/static/logo2.png"
       inkscape:export-xdpi="96"
       inkscape:export-ydpi="96" />
    <path
       class="st3"
       d="M 132.17368,3.5237942 V 34.812007 h -3.68833 V 3.5237942 Z"
       id="path31"
       style="fill:#f9ab85;stroke-width:0.408363"
       inkscape:export-filename="/Users/luprz/Projects/Neogaleno/ng-front/static/logo2.png"
       inkscape:export-xdpi="96"
       inkscape:export-ydpi="96" />
    <path
       class="st3"
       d="m 154.3986,28.185747 h 3.77101 l 0.0248,0.802571 c 0,2.278661 -0.7939,3.871705 -2.38583,4.779135 -1.59192,0.907431 -4.37882,1.363164 -8.36485,1.363164 -4.63932,0 -7.67846,-0.738044 -9.12978,-2.210099 -1.45134,-1.476089 -2.17496,-4.573451 -2.17496,-9.296123 0,-4.371801 0.72774,-7.30381 2.18735,-8.800064 1.45548,-1.496252 4.31268,-2.246394 8.56332,-2.246394 4.63935,0 7.67432,0.649317 9.11739,1.947952 1.43894,1.298633 2.16254,4.033025 2.16254,8.207206 v 1.718068 h -18.13144 c 0,3.452272 0.42589,5.654304 1.27768,6.602065 0.85178,0.947759 2.84065,1.419625 5.96662,1.419625 2.96883,0 4.8957,-0.22585 5.78469,-0.677548 0.889,-0.451699 1.33141,-1.423658 1.33141,-2.923943 z m 0,-6.235058 -0.0248,-1.032455 c 0,-2.367387 -0.44656,-3.908001 -1.34383,-4.617814 -0.89726,-0.709812 -2.82825,-1.064719 -5.79708,-1.064719 -2.98538,0 -4.92464,0.415401 -5.8095,1.250239 -0.889,0.834835 -1.33143,2.653729 -1.33143,5.468783 h 14.30665 z"
       id="path33"
       style="fill:#f9ab85;stroke-width:0.408363"
       inkscape:export-filename="/Users/luprz/Projects/Neogaleno/ng-front/static/logo2.png"
       inkscape:export-xdpi="96"
       inkscape:export-ydpi="96" />
    <path
       class="st3"
       d="m 162.20938,12.896546 h 3.556 l -0.10331,2.980406 0.10331,0.06856 c 1.12467,-2.246395 3.9157,-3.367576 8.37723,-3.367576 3.60149,0 6.03691,0.548491 7.31047,1.649507 1.27353,1.101018 1.9103,3.210289 1.9103,6.323785 v 14.256746 h -3.6883 V 20.825476 19.998705 c 0,-1.879389 -0.41348,-3.141727 -1.23632,-3.795077 -0.82699,-0.649316 -2.41477,-0.975992 -4.76751,-0.975992 -5.181,0 -7.77357,2.133469 -7.77357,6.396379 v 13.179928 h -3.6883 z"
       id="path35"
       style="fill:#f9ab85;stroke-width:0.408363"
       inkscape:export-filename="/Users/luprz/Projects/Neogaleno/ng-front/static/logo2.png"
       inkscape:export-xdpi="96"
       inkscape:export-ydpi="96" />
    <path
       class="st3"
       d="m 198.65828,12.577937 c 4.65587,0 7.67433,0.701746 9.06364,2.109273 1.38932,1.407526 2.07985,4.460526 2.07985,9.167066 0,4.706541 -0.69466,7.763575 -2.07985,9.167068 -1.38931,1.407526 -4.40777,2.109273 -9.06364,2.109273 -4.63931,0 -7.64951,-0.701747 -9.03882,-2.109273 -1.38932,-1.403493 -2.07985,-4.460527 -2.07985,-9.167068 0,-4.70654 0.69464,-7.763573 2.07985,-9.167066 1.38931,-1.407527 4.40363,-2.109273 9.03882,-2.109273 z m 0,2.657764 c -3.26655,0 -5.29264,0.463797 -6.07413,1.38736 -0.78148,0.923564 -1.17016,3.335313 -1.17016,7.231215 0,3.895903 0.38868,6.307651 1.17016,7.231214 0.78149,0.923564 2.80758,1.387363 6.07413,1.387363 3.28309,0 5.31745,-0.463799 6.09893,-1.387363 0.7815,-0.923563 1.17431,-3.335311 1.17431,-7.231214 0,-3.895902 -0.39281,-6.307651 -1.17431,-7.231215 -0.78148,-0.927596 -2.81584,-1.38736 -6.09893,-1.38736 z"
       id="path37"
       style="fill:#f9ab85;stroke-width:0.408363"
       inkscape:export-filename="/Users/luprz/Projects/Neogaleno/ng-front/static/logo2.png"
       inkscape:export-xdpi="96"
       inkscape:export-ydpi="96" />
    <path
       class="st3"
       d="m 98.135401,12.936876 v 23.351218 c 0,3.182059 -0.789761,5.367957 -2.37342,6.561734 -1.579519,1.193776 -4.482199,1.790664 -8.699769,1.790664 -3.762735,0 -6.33049,-0.504129 -7.699132,-1.512385 -1.368645,-1.008257 -2.055032,-2.899747 -2.055032,-5.666401 h 3.560124 c 0,1.879389 0.401082,3.105428 1.199114,3.670053 0.79803,0.564624 2.555351,0.850968 5.259557,0.850968 2.811714,0 4.70135,-0.367005 5.66891,-1.101016 0.96756,-0.73401 1.451341,-2.169767 1.451341,-4.311303 v -4.404065 l -0.07855,-0.02419 c -0.951021,2.032645 -3.692441,3.052999 -8.228396,3.052999 -3.72552,0 -6.293275,-0.798539 -7.699133,-2.395618 -1.405856,-1.597078 -2.108784,-4.512955 -2.108784,-8.751665 0,-4.387933 0.715331,-7.388504 2.150134,-9.001713 1.430665,-1.61321 4.089389,-2.419816 7.976168,-2.419816 4.130737,0 6.830811,1.101017 8.096081,3.30305 l 0.07856,-0.02419 -0.186067,-2.960241 h 3.688295 z m -10.994625,2.339155 c -2.898548,0 -4.779915,0.53236 -5.644103,1.593046 -0.860053,1.064719 -1.290081,3.391774 -1.290081,6.985199 0,3.625691 0.430028,5.976945 1.290081,7.053764 0.860054,1.076817 2.741421,1.617242 5.644103,1.617242 2.935757,0 4.866743,-0.592856 5.801225,-1.778565 0.934481,-1.185709 1.397586,-3.649888 1.397586,-7.396568 0,-3.303049 -0.467241,-5.472817 -1.397586,-6.513336 -0.930347,-1.040522 -2.865468,-1.560782 -5.801225,-1.560782 z"
       id="path39"
       style="fill:#f9ab85;stroke-width:0.408363"
       inkscape:export-filename="/Users/luprz/Projects/Neogaleno/ng-front/static/logo2.png"
       inkscape:export-xdpi="96"
       inkscape:export-ydpi="96" />
    <path
       class="st1"
       d="M 0.15132648,12.872348 H 3.7569357 l -0.107507,2.940075 0.107507,0.06856 c 1.137089,-2.214132 3.9736128,-3.323213 8.4930283,-3.323213 3.651091,0 6.123746,0.540425 7.413826,1.629343 1.29008,1.084883 1.939256,3.165924 1.939256,6.23909 V 34.489366 H 17.86512 V 20.700451 19.885779 c 0,-1.855192 -0.417622,-3.101397 -1.257,-3.742647 -0.835245,-0.641252 -2.447844,-0.959862 -4.833666,-0.959862 -5.2554234,0 -7.8810679,2.101208 -7.8810679,6.307654 V 34.489366 H 0.15546138 V 12.872348 Z"
       id="path41"
       style="fill:#009ba9;stroke-width:0.408363;fill-opacity:1"
       inkscape:export-filename="/Users/luprz/Projects/Neogaleno/ng-front/static/logo2.png"
       inkscape:export-xdpi="96"
       inkscape:export-ydpi="96" />
    <path
       class="st1"
       d="m 61.864298,12.694894 c 4.58144,0 7.558547,0.693682 8.923055,2.077007 1.364509,1.383329 2.050897,4.391967 2.050897,9.025913 0,4.633947 -0.682253,7.642585 -2.050897,9.025911 -1.364508,1.383329 -4.341615,2.07701 -8.923055,2.07701 -4.564898,0 -7.533738,-0.693681 -8.898246,-2.07701 -1.364509,-1.383326 -2.050897,-4.391964 -2.050897,-9.025911 0,-4.633946 0.682253,-7.642584 2.050897,-9.025913 1.364508,-1.383325 4.333348,-2.077007 8.898246,-2.077007 z m 0,2.617434 c -3.21693,0 -5.209938,0.455732 -5.979024,1.367197 -0.769087,0.911463 -1.153631,3.282882 -1.153631,7.118289 0,3.835408 0.384544,6.21086 1.153631,7.11829 0.769086,0.911465 2.762094,1.367197 5.979024,1.367197 3.23347,0 5.23475,-0.455732 6.00797,-1.367197 0.769087,-0.911463 1.15363,-3.282882 1.15363,-7.11829 0,-3.835407 -0.384543,-6.210859 -1.15363,-7.118289 -0.769086,-0.911465 -2.7745,-1.367197 -6.00797,-1.367197 z"
       id="path43"
       style="fill:#009ba9;stroke-width:0.408363;fill-opacity:1"
       inkscape:export-filename="/Users/luprz/Projects/Neogaleno/ng-front/static/logo2.png"
       inkscape:export-xdpi="96"
       inkscape:export-ydpi="96" />
    <line
       class="st4"
       x1="61.889114"
       y1="18.341131"
       x2="61.889114"
       y2="28.99638"
       id="line45"
       style="fill:#009ba9;stroke:#ffffff;stroke-width:3.57392;stroke-miterlimit:10;fill-opacity:1"
       inkscape:export-filename="/Users/luprz/Projects/Neogaleno/ng-front/static/logo2.png"
       inkscape:export-xdpi="96"
       inkscape:export-ydpi="96" />
    <line
       class="st4"
       x1="67.371956"
       y1="23.668743"
       x2="56.447617"
       y2="23.668743"
       id="line47"
       style="fill:#009ba9;stroke:#ffffff;stroke-width:3.57392;stroke-miterlimit:10;fill-opacity:1"
       inkscape:export-filename="/Users/luprz/Projects/Neogaleno/ng-front/static/logo2.png"
       inkscape:export-xdpi="96"
       inkscape:export-ydpi="96" />
    <path
       class="st1"
       d="m 57.386231,14.392798 c 0,-1.927785 0.285307,-3.178025 0.851784,-3.754747 0.566478,-0.576722 1.802804,-0.8630675 3.700712,-0.8630675 1.906177,0 3.142502,0.2863455 3.70898,0.8630675 0.566477,0.576722 0.851783,1.826962 0.851783,3.754747 m -1.583655,0 c 0,-1.597078 -0.161261,-2.581135 -0.479646,-2.960241 -0.318384,-0.379104 -1.153629,-0.568656 -2.497462,-0.568656 -1.335565,0 -2.166674,0.189552 -2.485059,0.568656 -0.318385,0.379106 -0.479647,1.363163 -0.479647,2.960241"
       id="path51"
       style="fill:#009ba9;stroke-width:0.408363;fill-opacity:1"
       inkscape:export-filename="/Users/luprz/Projects/Neogaleno/ng-front/static/logo2.png"
       inkscape:export-xdpi="96"
       inkscape:export-ydpi="96" />
    <path
       id="rect1751"
       style="opacity:1;fill:#009ba9;fill-opacity:1;stroke-width:0.408777"
       d="m 60.09154,18.335874 v 3.677295 h -3.676778 v 3.569808 h 3.676778 v 3.676778 h 3.570325 v -3.676778 h 3.676778 v -3.569808 h -3.676778 v -3.677295 z" />
  </g>
</svg>
