<?xml version="1.0" encoding="UTF-8" standalone="no"?>
<svg
   width="24"
   height="24"
   viewBox="0 0 24 24"
   fill="none"
   class="h-4 w-4 text-token-text-primary"
   version="1.1"
   id="svg6"
   sodipodi:docname="starts.svg"
   inkscape:version="1.1.2 (0a00cf5339, 2022-02-04)"
   xmlns:inkscape="http://www.inkscape.org/namespaces/inkscape"
   xmlns:sodipodi="http://sodipodi.sourceforge.net/DTD/sodipodi-0.dtd"
   xmlns="http://www.w3.org/2000/svg"
   xmlns:svg="http://www.w3.org/2000/svg">
  <defs
     id="defs10" />
  <sodipodi:namedview
     id="namedview8"
     pagecolor="#ffffff"
     bordercolor="#666666"
     borderopacity="1.0"
     inkscape:pageshadow="2"
     inkscape:pageopacity="0.0"
     inkscape:pagecheckerboard="0"
     showgrid="false"
     inkscape:zoom="6.8541668"
     inkscape:cx="-5.5440729"
     inkscape:cy="17.87234"
     inkscape:window-width="1920"
     inkscape:window-height="1019"
     inkscape:window-x="0"
     inkscape:window-y="30"
     inkscape:window-maximized="1"
     inkscape:current-layer="svg6" />
  <path
     d="M15.11 14.285a.41.41 0 0 1 .78 0c.51 2.865.96 3.315 3.825 3.826.38.12.38.658 0 .778-2.865.511-3.315.961-3.826 3.826a.408.408 0 0 1-.778 0c-.511-2.865-.961-3.315-3.826-3.826a.408.408 0 0 1 0-.778c2.865-.511 3.315-.961 3.826-3.826Zm2.457-12.968a.454.454 0 0 1 .866 0C19 4.5 19.5 5 22.683 5.567a.454.454 0 0 1 0 .866C19.5 7 19 7.5 18.433 10.683a.454.454 0 0 1-.866 0C17 7.5 16.5 7 13.317 6.433a.454.454 0 0 1 0-.866C16.5 5 17 4.5 17.567 1.317Z"
     fill="currentColor"
     id="path2"
     style="fill:#009ba9;fill-opacity:1" />
  <path
     fill-rule="evenodd"
     clip-rule="evenodd"
     d="M7.001 4a1 1 0 0 1 .993.887c.192 1.7.701 2.877 1.476 3.665.768.783 1.913 1.3 3.618 1.452a1 1 0 0 1-.002 1.992c-1.675.145-2.849.662-3.638 1.452-.79.79-1.307 1.963-1.452 3.638a1 1 0 0 1-1.992.003c-.152-1.706-.67-2.851-1.452-3.62-.788-.774-1.965-1.283-3.665-1.475a1 1 0 0 1-.002-1.987c1.73-.2 2.878-.709 3.646-1.476.767-.768 1.276-1.916 1.476-3.646A1 1 0 0 1 7 4Zm-2.472 6.998a6.11 6.11 0 0 1 2.468 2.412 6.232 6.232 0 0 1 1.037-1.376 6.232 6.232 0 0 1 1.376-1.036 6.114 6.114 0 0 1-2.412-2.469 6.163 6.163 0 0 1-1.053 1.416 6.163 6.163 0 0 1-1.416 1.053Z"
     fill="currentColor"
     id="path4"
     style="fill:#ffb26d;fill-opacity:1" />
</svg>
